<svg xmlns="http://www.w3.org/2000/svg" viewBox="0 0 800 800" xmlns:xlink="http://www.w3.org/1999/xlink">
  <!-- Background elements -->
  <ellipse cx="400" cy="600" rx="380" ry="80" fill="#d4f1e8" opacity="0.3"/>
  <ellipse cx="300" cy="200" rx="250" ry="150" fill="#e8f5f1" opacity="0.5"/>
  
  <!-- Leaves (background) -->
  <path d="M100 300 Q80 250 90 200 Q100 240 110 280 Z" fill="#a8d5ba" opacity="0.6"/>
  <path d="M120 350 Q100 310 105 270 Q115 305 125 340 Z" fill="#8fc9a8" opacity="0.6"/>
  
  <!-- Computer Monitor -->
  <rect x="180" y="190" width="400" height="280" rx="8" fill="#5a8f72"/>
  <rect x="195" y="205" width="370" height="240" fill="#f5f5f5"/>
  
  <!-- Monitor Stand -->
  <rect x="350" y="470" width="80" height="20" rx="4" fill="#4a7a5e"/>
  <rect x="280" y="590" width="220" height="15" rx="7" fill="#4a7a5e"/>
  
  <!-- Browser window elements -->
  <circle cx="205" cy="215" r="4" fill="#5a8f72"/>
  <circle cx="220" cy="215" r="4" fill="#5a8f72"/>
  <circle cx="235" cy="215" r="4" fill="#5a8f72"/>
  <line x1="435" y1="230" x2="540" y2="230" stroke="#c0c0c0" stroke-width="3"/>
  <rect x="545" y="225" width="12" height="12" fill="#87cefa"/>
  
  <!-- Document on left side of screen -->
  <rect x="215" y="250" width="80" height="110" rx="4" fill="#87cefa" opacity="0.7"/>
  <line x1="230" y1="270" x2="280" y2="270" stroke="#4a4a4a" stroke-width="2"/>
  <line x1="230" y1="285" x2="275" y2="285" stroke="#4a4a4a" stroke-width="2"/>
  <line x1="230" y1="300" x2="280" y2="300" stroke="#4a4a4a" stroke-width="2"/>
  <line x1="230" y1="315" x2="270" y2="315" stroke="#4a4a4a" stroke-width="2"/>
  <line x1="230" y1="330" x2="280" y2="330" stroke="#4a4a4a" stroke-width="2"/>
  
  <!-- Content panel on right -->
  <rect x="320" y="250" width="230" height="170" rx="4" fill="white"/>
  <rect x="330" y="260" width="100" height="8" rx="4" fill="#a8d5ba"/>
  <rect x="330" y="280" width="30" height="30" rx="4" fill="#8fc9a8"/>
  <line x1="370" y1="285" x2="530" y2="285" stroke="#c0c0c0" stroke-width="2"/>
  <line x1="370" y1="295" x2="510" y2="295" stroke="#c0c0c0" stroke-width="2"/>
  <line x1="370" y1="305" x2="520" y2="305" stroke="#c0c0c0" stroke-width="2"/>
  <line x1="330" y1="330" x2="530" y2="330" stroke="#e0e0e0" stroke-width="2"/>
  <line x1="330" y1="345" x2="500" y2="345" stroke="#e0e0e0" stroke-width="2"/>
  
  <!-- Button elements -->
  <rect x="330" y="390" width="50" height="18" rx="4" fill="#87cefa" opacity="0.5"/>
  <rect x="390" y="390" width="50" height="18" rx="4" fill="#87cefa" opacity="0.5"/>
  
  <!-- Person 1 - Left (Woman with paper) -->
  <ellipse cx="180" cy="420" rx="45" ry="55" fill="#4a7a5e"/>
  <circle cx="180" cy="340" r="30" fill="#f5d6c6"/>
  <path d="M165 320 Q170 305 185 310 Q180 325 175 335 Z" fill="#2d2d2d"/>
  <ellipse cx="175" cy="335" rx="3" ry="4" fill="#2d2d2d"/>
  <ellipse cx="185" cy="335" rx="3" ry="4" fill="#2d2d2d"/>
  <path d="M175 345 Q180 348 185 345" stroke="#2d2d2d" fill="none" stroke-width="1.5"/>
  
  <!-- Paper in hand -->
  <rect x="140" y="380" width="30" height="40" rx="2" fill="white" stroke="#c0c0c0" stroke-width="2"/>
  <line x1="145" y1="390" x2="165" y2="390" stroke="#4a4a4a" stroke-width="1"/>
  <line x1="145" y1="400" x2="165" y2="400" stroke="#4a4a4a" stroke-width="1"/>
  
  <!-- Arms -->
  <path d="M150 390 L145 420" stroke="#f5d6c6" stroke-width="12" stroke-linecap="round"/>
  <path d="M210 400 L200 430" stroke="#f5d6c6" stroke-width="12" stroke-linecap="round"/>
  
  <!-- Legs -->
  <rect x="160" y="465" width="15" height="60" fill="#2d2d2d"/>
  <rect x="185" y="465" width="15" height="60" fill="#2d2d2d"/>
  <ellipse cx="167" cy="530" rx="12" ry="6" fill="white"/>
  <ellipse cx="192" cy="530" rx="12" ry="6" fill="white"/>
  
  <!-- Person 2 - Center (Man with laptop standing) -->
  <ellipse cx="400" cy="400" rx="45" ry="55" fill="#87cefa"/>
  <circle cx="400" cy="320" r="30" fill="#f5d6c6"/>
  <path d="M385 300 Q390 285 405 290 Q400 305 395 315 Z" fill="#2d2d2d"/>
  <ellipse cx="395" cy="315" rx="3" ry="4" fill="#2d2d2d"/>
  <ellipse cx="405" cy="315" rx="3" ry="4" fill="#2d2d2d"/>
  <path d="M395 325 Q400 328 405 325" stroke="#2d2d2d" fill="none" stroke-width="1.5"/>
  
  <!-- Laptop -->
  <rect x="360" y="350" width="60" height="35" rx="2" fill="#4a4a4a"/>
  <rect x="365" y="355" width="50" height="25" fill="#87cefa"/>
  <line x1="370" y1="365" x2="410" y2="365" stroke="white" stroke-width="1"/>
  
  <!-- Arms -->
  <path d="M360 380 L350 410" stroke="#f5d6c6" stroke-width="12" stroke-linecap="round"/>
  <path d="M440 380 L430 410" stroke="#f5d6c6" stroke-width="12" stroke-linecap="round"/>
  
  <!-- Legs -->
  <rect x="380" y="445" width="15" height="75" fill="#2d2d2d"/>
  <rect x="405" y="445" width="15" height="75" fill="#2d2d2d"/>
  <ellipse cx="387" cy="525" rx="12" ry="6" fill="#4a4a4a"/>
  <ellipse cx="412" cy="525" rx="12" ry="6" fill="#4a4a4a"/>
  
  <!-- Person 3 - Right (Man sitting with laptop) -->
  <circle cx="580" cy="390" r="28" fill="#f5d6c6"/>
  <path d="M565 370 Q570 355 585 360 Q580 375 575 385 Z" fill="#2d2d2d"/>
  <ellipse cx="575" cy="385" rx="3" ry="4" fill="#2d2d2d"/>
  <ellipse cx="585" cy="385" rx="3" ry="4" fill="#2d2d2d"/>
  <path d="M575 395 Q580 398 585 395" stroke="#2d2d2d" fill="none" stroke-width="1.5"/>
  
  <!-- Body sitting -->
  <ellipse cx="580" cy="460" rx="40" ry="50" fill="white"/>
  
  <!-- Laptop on lap -->
  <rect x="550" y="480" width="55" height="30" rx="2" fill="#2d2d2d"/>
  <rect x="555" y="485" width="45" height="20" fill="#87cefa"/>
  <circle cx="577" cy="505" r="2" fill="white"/>
  
  <!-- Arms -->
  <path d="M540 430 L545 470" stroke="#f5d6c6" stroke-width="12" stroke-linecap="round"/>
  <path d="M620 430 L610 470" stroke="#f5d6c6" stroke-width="12" stroke-linecap="round"/>
  
  <!-- Legs -->
  <rect x="555" y="505" width="15" height="40" fill="#2d2d2d"/>
  <rect x="580" y="505" width="15" height="40" fill="#2d2d2d"/>
  <ellipse cx="562" cy="550" rx="12" ry="6" fill="#4a4a4a"/>
  <ellipse cx="587" cy="550" rx="12" ry="6" fill="#4a4a4a"/>
  
  <!-- Backpack/bag -->
  <rect x="630" y="490" width="40" height="50" rx="8" fill="#4a7a5e"/>
  <rect x="638" y="500" width="24" height="30" fill="#a8d5ba"/>
  <circle cx="650" cy="515" r="3" fill="white"/>
  <line x1="645" y1="540" x2="645" y2="555" stroke="#4a7a5e" stroke-width="4"/>
  <line x1="655" y1="540" x2="655" y2="555" stroke="#4a7a5e" stroke-width="4"/>
  
  <!-- Leaves (foreground right) -->
  <path d="M680 200 Q700 150 710 100 L720 150 Q715 200 700 240 Z" fill="#8fc9a8" opacity="0.7"/>
  <path d="M690 250 Q705 210 715 170 L723 210 Q720 250 710 285 Z" fill="#a8d5ba" opacity="0.7"/>
  <path d="M665 280 Q678 245 685 210 L692 245 Q690 280 682 310 Z" fill="#8fc9a8" opacity="0.7"/>
  
  <!-- Leaves (foreground left) -->
  <path d="M50 450 Q40 400 45 350 L55 400 Q58 450 52 490 Z" fill="#a8d5ba" opacity="0.7"/>
  <path d="M70 480 Q62 440 65 400 L73 440 Q75 480 72 515 Z" fill="#8fc9a8" opacity="0.7"/>
  
  <!-- Decorative dots -->
  <circle cx="150" cy="150" r="6" fill="#a8d5ba" opacity="0.5"/>
  <circle cx="650" cy="180" r="8" fill="#8fc9a8" opacity="0.4"/>
  <circle cx="700" cy="200" r="5" fill="#a8d5ba" opacity="0.5"/>
  <circle cx="408" cy="170" r="8" fill="#8fc9a8" opacity="0.3"/>
  <circle cx="430" cy="165" r="5" fill="#a8d5ba" opacity="0.4"/>
</svg>
